<svg version="1.1" id="Layer_1" xmlns="http://www.w3.org/2000/svg" xmlns:xlink="http://www.w3.org/1999/xlink" x="0px" y="0px"
	 width="100%" viewBox="0 0 197 186" enable-background="new 0 0 197 186" xml:space="preserve">
<path fill="#000000" opacity="1.000000" stroke="none" 
	d="
M139.000000,187.000000 
	C92.696602,187.000000 46.893200,187.000000 1.044900,187.000000 
	C1.044900,125.070450 1.044900,63.140865 1.044900,1.105637 
	C66.553207,1.105637 132.106628,1.105637 197.830032,1.105637 
	C197.830032,62.999611 197.830032,124.999771 197.830032,187.000000 
	C178.474487,187.000000 158.987244,187.000000 139.000000,187.000000 
M165.576675,162.991913 
	C172.652283,162.991913 179.727890,162.991913 187.813095,162.991913 
	C158.087967,111.447609 128.855591,60.757793 99.820511,10.410067 
	C93.571854,20.800097 87.194817,31.161266 81.172775,41.724815 
	C80.423584,43.039001 81.041061,45.715481 81.909126,47.265827 
	C85.366043,53.439808 89.318443,59.334827 92.825096,65.482735 
	C108.158310,92.365028 123.463448,119.263824 138.642120,146.233536 
	C144.405579,156.474106 151.578735,164.174469 165.576675,162.991913 
M52.473118,157.017715 
	C56.973450,150.003357 61.591763,143.061050 65.934502,135.950439 
	C69.061974,130.829666 71.822189,125.484581 74.316963,121.009544 
	C63.328323,121.009544 52.248024,121.186691 41.178139,120.924339 
	C36.605003,120.815956 33.409637,121.611961 31.727365,126.475853 
	C30.701105,129.443024 28.447025,131.981339 26.772144,134.729172 
	C21.838627,142.823151 16.887335,150.906601 12.012501,159.035858 
	C10.488775,161.576828 10.226988,164.029297 14.209245,163.948532 
	C22.599327,163.778381 31.054441,163.866852 39.341686,162.776306 
	C43.703144,162.202362 47.767166,159.368195 52.473118,157.017715 
M58.972454,80.352348 
	C53.710747,88.848106 48.449036,97.343864 42.468563,107.000168 
	C45.188999,107.000168 46.749821,107.044807 48.307426,106.992882 
	C57.867420,106.674179 67.424438,106.211441 76.986832,106.035843 
	C85.965828,105.870956 91.955795,96.374054 87.723228,88.402824 
	C84.718636,82.744247 81.249207,77.333336 78.018188,71.793839 
	C75.707436,67.832123 73.447922,63.840527 71.058334,59.675369 
	C66.783295,66.762329 62.911137,73.181427 58.972454,80.352348 
M107.252586,122.032333 
	C100.359131,123.109436 102.650253,117.457420 101.765205,114.233894 
	C99.138283,114.233894 96.712891,114.233894 93.979584,114.233894 
	C93.979584,116.913872 93.979584,119.361229 93.979584,121.388451 
	C91.647079,122.381943 89.630394,123.015396 87.840805,124.043976 
	C81.592766,127.635078 79.996162,133.322083 81.006180,140.047211 
	C81.803787,145.357925 85.937531,147.339005 90.260452,148.946716 
	C93.701546,150.226486 97.333412,151.010330 100.731255,152.383774 
	C103.320808,153.430496 106.703865,154.604660 105.835052,158.287918 
	C105.059433,161.576111 102.367142,163.504883 98.809792,162.951096 
	C93.636230,162.145691 88.515862,160.998535 83.230591,159.969421 
	C80.627365,167.608154 80.927376,169.360214 87.714241,170.717133 
	C92.719048,171.717789 94.654655,173.968002 94.073517,178.772003 
	C96.909569,178.772003 99.341629,178.772003 101.966194,178.772003 
	C101.756851,174.584732 101.982193,171.579163 107.389565,170.597397 
	C112.809906,169.613281 117.285690,161.351135 117.005592,155.672913 
	C116.737396,150.235840 113.036926,146.101410 106.362808,144.034012 
	C102.698860,142.899078 98.805023,142.358215 95.324898,140.839172 
	C93.533630,140.057312 91.532600,137.828201 91.314987,136.046799 
	C91.169975,134.859665 93.933784,132.222168 95.519569,132.117920 
	C100.915382,131.763260 106.366165,132.244812 112.383438,132.424637 
	C115.481583,126.298065 114.935570,124.676460 107.252586,122.032333 
z"/>
<path fill="#FEFEFE" opacity="1.000000" stroke="none" 
	d="
M165.091064,162.991913 
	C151.578735,164.174469 144.405579,156.474106 138.642120,146.233536 
	C123.463448,119.263824 108.158310,92.365028 92.825096,65.482735 
	C89.318443,59.334827 85.366043,53.439808 81.909126,47.265827 
	C81.041061,45.715481 80.423584,43.039001 81.172775,41.724815 
	C87.194817,31.161266 93.571854,20.800097 99.820511,10.410067 
	C128.855591,60.757793 158.087967,111.447609 187.813095,162.991913 
	C179.727890,162.991913 172.652283,162.991913 165.091064,162.991913 
z"/>
<path fill="#FEFEFE" opacity="1.000000" stroke="none" 
	d="
M52.219307,157.286163 
	C47.767166,159.368195 43.703144,162.202362 39.341686,162.776306 
	C31.054441,163.866852 22.599327,163.778381 14.209245,163.948532 
	C10.226988,164.029297 10.488775,161.576828 12.012501,159.035858 
	C16.887335,150.906601 21.838627,142.823151 26.772144,134.729172 
	C28.447025,131.981339 30.701105,129.443024 31.727365,126.475853 
	C33.409637,121.611961 36.605003,120.815956 41.178139,120.924339 
	C52.248024,121.186691 63.328323,121.009544 74.316963,121.009544 
	C71.822189,125.484581 69.061974,130.829666 65.934502,135.950439 
	C61.591763,143.061050 56.973450,150.003357 52.219307,157.286163 
z"/>
<path fill="#FEFEFE" opacity="1.000000" stroke="none" 
	d="
M59.005714,79.976440 
	C62.911137,73.181427 66.783295,66.762329 71.058334,59.675369 
	C73.447922,63.840527 75.707436,67.832123 78.018188,71.793839 
	C81.249207,77.333336 84.718636,82.744247 87.723228,88.402824 
	C91.955795,96.374054 85.965828,105.870956 76.986832,106.035843 
	C67.424438,106.211441 57.867420,106.674179 48.307426,106.992882 
	C46.749821,107.044807 45.188999,107.000168 42.468563,107.000168 
	C48.449036,97.343864 53.710747,88.848106 59.005714,79.976440 
z"/>
<path fill="#FCFCFC" opacity="1.000000" stroke="none" 
	d="
M107.605545,122.235283 
	C114.935570,124.676460 115.481583,126.298065 112.383438,132.424637 
	C106.366165,132.244812 100.915382,131.763260 95.519569,132.117920 
	C93.933784,132.222168 91.169975,134.859665 91.314987,136.046799 
	C91.532600,137.828201 93.533630,140.057312 95.324898,140.839172 
	C98.805023,142.358215 102.698860,142.899078 106.362808,144.034012 
	C113.036926,146.101410 116.737396,150.235840 117.005592,155.672913 
	C117.285690,161.351135 112.809906,169.613281 107.389565,170.597397 
	C101.982193,171.579163 101.756851,174.584732 101.966194,178.772003 
	C99.341629,178.772003 96.909569,178.772003 94.073517,178.772003 
	C94.654655,173.968002 92.719048,171.717789 87.714241,170.717133 
	C80.927376,169.360214 80.627365,167.608154 83.230591,159.969421 
	C88.515862,160.998535 93.636230,162.145691 98.809792,162.951096 
	C102.367142,163.504883 105.059433,161.576111 105.835052,158.287918 
	C106.703865,154.604660 103.320808,153.430496 100.731255,152.383774 
	C97.333412,151.010330 93.701546,150.226486 90.260452,148.946716 
	C85.937531,147.339005 81.803787,145.357925 81.006180,140.047211 
	C79.996162,133.322083 81.592766,127.635078 87.840805,124.043976 
	C89.630394,123.015396 91.647079,122.381943 93.979584,121.388451 
	C93.979584,119.361229 93.979584,116.913872 93.979584,114.233894 
	C96.712891,114.233894 99.138283,114.233894 101.765205,114.233894 
	C102.650253,117.457420 100.359131,123.109436 107.605545,122.235283 
z"/>
</svg>